<?xml version="1.0" standalone="no"?>
<!DOCTYPE svg PUBLIC "-//W3C//DTD SVG 20010904//EN"
 "http://www.w3.org/TR/2001/REC-SVG-20010904/DTD/svg10.dtd">
<svg version="1.0" xmlns="http://www.w3.org/2000/svg"
 width="131.000000pt" height="131.000000pt" viewBox="0 0 131.000000 131.000000"
 preserveAspectRatio="xMidYMid meet">

<g transform="translate(0.000000,131.000000) scale(0.100000,-0.100000)"
fill="#000000" stroke="none">
<path d="M350 1240 c-14 -5 -56 -18 -95 -29 -69 -20 -71 -22 -115 -88 -25 -37
-52 -76 -61 -86 -11 -12 -23 -68 -37 -175 -19 -142 -19 -166 -7 -247 31 -211
166 -378 374 -463 83 -33 91 -35 216 -35 121 0 136 2 219 31 150 53 268 151
334 277 35 68 36 73 37 181 0 107 -1 115 -35 185 -19 41 -51 91 -70 112 -19
21 -38 45 -43 52 -15 27 -169 135 -240 168 -150 71 -234 99 -347 117 -76 12
-96 12 -130 0z m332 -216 c40 -25 103 -103 137 -170 27 -53 51 -162 51 -239 0
-153 -104 -332 -205 -351 -20 -3 -57 -4 -83 -1 -41 4 -53 12 -93 55 -150 163
-184 410 -83 602 68 129 172 168 276 104z"/>
</g>
</svg>
