<?xml version="1.0" standalone="no"?>
<!DOCTYPE svg PUBLIC "-//W3C//DTD SVG 20010904//EN"
 "http://www.w3.org/TR/2001/REC-SVG-20010904/DTD/svg10.dtd">
<svg version="1.0" xmlns="http://www.w3.org/2000/svg"
 width="131.000000pt" height="131.000000pt" viewBox="0 0 131.000000 131.000000"
 preserveAspectRatio="xMidYMid meet">

<g transform="translate(0.000000,131.000000) scale(0.100000,-0.100000)"
fill="#000000" stroke="none">
<path d="M435 1079 c-99 -3 -207 -7 -240 -9 l-60 -2 57 -27 c51 -23 62 -34 99
-96 22 -39 65 -111 95 -161 30 -50 54 -95 54 -101 0 -6 -43 -62 -96 -124 -53
-63 -123 -146 -156 -186 -33 -39 -73 -77 -89 -84 -17 -6 -26 -15 -22 -19 8 -7
307 -57 408 -68 l49 -5 -27 26 -28 25 24 19 c14 10 44 63 68 117 30 69 46 95
51 85 64 -107 158 -273 158 -278 0 -4 -14 -15 -32 -26 -18 -10 -27 -20 -21
-22 6 -2 92 3 190 11 98 9 197 16 220 16 24 0 43 3 43 8 0 4 -24 20 -53 35
-44 22 -65 44 -113 113 -32 46 -65 92 -72 102 -70 94 -152 214 -152 223 0 13
33 46 198 194 99 89 132 113 174 125 l52 16 -224 28 c-124 15 -234 30 -245 32
l-20 5 20 -16 c11 -9 29 -22 40 -29 20 -13 19 -15 -14 -77 -18 -35 -37 -68
-41 -72 -8 -9 -57 63 -52 77 2 5 -4 4 -12 -3 -9 -7 -15 -16 -14 -19 0 -4 0
-16 -2 -27 l-1 -20 -8 20 c-6 14 -2 28 10 47 22 30 24 42 7 32 -8 -5 -9 -2 -5
10 4 10 1 19 -8 22 -8 4 -12 10 -9 15 3 6 0 16 -6 24 -6 8 -9 23 -5 35 3 11 3
19 -2 18 -4 -1 -89 -5 -188 -9z m181 -85 c-2 -10 4 -28 13 -38 12 -15 13 -18
2 -14 -18 5 -65 78 -51 78 5 0 10 -4 10 -10 0 -5 5 -10 11 -10 6 0 8 9 4 23
-5 17 -4 18 4 6 5 -8 8 -24 7 -35z m94 -161 c-1 -5 -8 5 -17 22 -15 27 -17 28
-24 10 -9 -24 -11 -9 -3 23 6 21 7 20 25 -13 11 -19 19 -38 19 -42z"/>
</g>
</svg>
